<mxfile host="Electron" modified="2023-12-02T10:57:51.386Z" agent="Mozilla/5.0 (Windows NT 10.0; Win64; x64) AppleWebKit/537.36 (KHTML, like Gecko) draw.io/21.5.0 Chrome/112.0.5615.204 Electron/24.5.1 Safari/537.36" etag="YCswiFJciBkPlC5vH3Yx" version="21.5.0" type="device">
  <diagram name="Page-1" id="XON07IPh-ZJK_7BV2nB7">
    <mxGraphModel dx="1418" dy="836" grid="1" gridSize="10" guides="1" tooltips="1" connect="1" arrows="1" fold="1" page="1" pageScale="1" pageWidth="850" pageHeight="1100" math="0" shadow="0">
      <root>
        <mxCell id="0" />
        <mxCell id="1" parent="0" />
        <mxCell id="BTfkqiBdbR_koEkJdETr-1" value="Deno Instance 1&lt;br&gt;/ws_in" style="rounded=0;whiteSpace=wrap;html=1;" parent="1" vertex="1">
          <mxGeometry x="80" y="160" width="200" height="200" as="geometry" />
        </mxCell>
        <mxCell id="BTfkqiBdbR_koEkJdETr-2" value="Deno Instance 2&lt;br&gt;/ws_in" style="rounded=0;whiteSpace=wrap;html=1;" parent="1" vertex="1">
          <mxGeometry x="80" y="440" width="200" height="200" as="geometry" />
        </mxCell>
        <mxCell id="BTfkqiBdbR_koEkJdETr-4" value="" style="endArrow=none;html=1;rounded=0;" parent="1" edge="1">
          <mxGeometry width="50" height="50" relative="1" as="geometry">
            <mxPoint x="150" y="470" as="sourcePoint" />
            <mxPoint x="150" y="350" as="targetPoint" />
          </mxGeometry>
        </mxCell>
        <mxCell id="BTfkqiBdbR_koEkJdETr-5" value="" style="endArrow=none;html=1;rounded=0;" parent="1" edge="1">
          <mxGeometry width="50" height="50" relative="1" as="geometry">
            <mxPoint x="150" y="470" as="sourcePoint" />
            <mxPoint x="130" y="490" as="targetPoint" />
          </mxGeometry>
        </mxCell>
        <mxCell id="BTfkqiBdbR_koEkJdETr-6" value="" style="endArrow=none;html=1;rounded=0;" parent="1" edge="1">
          <mxGeometry width="50" height="50" relative="1" as="geometry">
            <mxPoint x="150" y="350" as="sourcePoint" />
            <mxPoint x="130" y="330" as="targetPoint" />
          </mxGeometry>
        </mxCell>
        <mxCell id="BTfkqiBdbR_koEkJdETr-8" value="" style="endArrow=none;html=1;rounded=0;" parent="1" edge="1">
          <mxGeometry width="50" height="50" relative="1" as="geometry">
            <mxPoint x="230" y="330" as="sourcePoint" />
            <mxPoint x="210" y="350" as="targetPoint" />
          </mxGeometry>
        </mxCell>
        <mxCell id="BTfkqiBdbR_koEkJdETr-9" value="" style="endArrow=none;html=1;rounded=0;" parent="1" edge="1">
          <mxGeometry width="50" height="50" relative="1" as="geometry">
            <mxPoint x="230" y="490" as="sourcePoint" />
            <mxPoint x="210" y="470" as="targetPoint" />
          </mxGeometry>
        </mxCell>
        <mxCell id="BTfkqiBdbR_koEkJdETr-10" value="BroadcastChannel" style="text;html=1;align=center;verticalAlign=middle;resizable=0;points=[];autosize=1;strokeColor=none;fillColor=none;" parent="1" vertex="1">
          <mxGeometry x="150" y="385" width="120" height="30" as="geometry" />
        </mxCell>
        <mxCell id="BTfkqiBdbR_koEkJdETr-11" value="/ws_out" style="rounded=0;whiteSpace=wrap;html=1;" parent="1" vertex="1">
          <mxGeometry x="320" y="300" width="200" height="200" as="geometry" />
        </mxCell>
        <mxCell id="BTfkqiBdbR_koEkJdETr-12" value="" style="endArrow=none;html=1;rounded=0;" parent="1" edge="1">
          <mxGeometry width="50" height="50" relative="1" as="geometry">
            <mxPoint x="209.71" y="470" as="sourcePoint" />
            <mxPoint x="210" y="420" as="targetPoint" />
          </mxGeometry>
        </mxCell>
        <mxCell id="BTfkqiBdbR_koEkJdETr-13" value="" style="endArrow=none;html=1;rounded=0;" parent="1" edge="1">
          <mxGeometry width="50" height="50" relative="1" as="geometry">
            <mxPoint x="210" y="380" as="sourcePoint" />
            <mxPoint x="210" y="350" as="targetPoint" />
          </mxGeometry>
        </mxCell>
        <mxCell id="BTfkqiBdbR_koEkJdETr-14" value="" style="endArrow=none;html=1;rounded=0;" parent="1" edge="1">
          <mxGeometry width="50" height="50" relative="1" as="geometry">
            <mxPoint x="210" y="380" as="sourcePoint" />
            <mxPoint x="330" y="380" as="targetPoint" />
          </mxGeometry>
        </mxCell>
        <mxCell id="BTfkqiBdbR_koEkJdETr-15" value="" style="endArrow=none;html=1;rounded=0;" parent="1" edge="1">
          <mxGeometry width="50" height="50" relative="1" as="geometry">
            <mxPoint x="210" y="420" as="sourcePoint" />
            <mxPoint x="330" y="420" as="targetPoint" />
          </mxGeometry>
        </mxCell>
        <mxCell id="BTfkqiBdbR_koEkJdETr-16" value="" style="endArrow=none;html=1;rounded=0;" parent="1" edge="1">
          <mxGeometry width="50" height="50" relative="1" as="geometry">
            <mxPoint x="350" y="360" as="sourcePoint" />
            <mxPoint x="330" y="380" as="targetPoint" />
          </mxGeometry>
        </mxCell>
        <mxCell id="BTfkqiBdbR_koEkJdETr-17" value="" style="endArrow=none;html=1;rounded=0;" parent="1" edge="1">
          <mxGeometry width="50" height="50" relative="1" as="geometry">
            <mxPoint x="350" y="440" as="sourcePoint" />
            <mxPoint x="330" y="420" as="targetPoint" />
          </mxGeometry>
        </mxCell>
        <mxCell id="BTfkqiBdbR_koEkJdETr-18" value="Outlet" style="rounded=0;whiteSpace=wrap;html=1;" parent="1" vertex="1">
          <mxGeometry x="600" y="300" width="200" height="200" as="geometry" />
        </mxCell>
        <mxCell id="BTfkqiBdbR_koEkJdETr-19" value="" style="shape=flexArrow;endArrow=classic;html=1;rounded=0;width=10;comic=0;" parent="1" edge="1">
          <mxGeometry width="50" height="50" relative="1" as="geometry">
            <mxPoint x="600" y="460.00000000000006" as="sourcePoint" />
            <mxPoint x="520" y="460.00000000000006" as="targetPoint" />
          </mxGeometry>
        </mxCell>
        <mxCell id="BTfkqiBdbR_koEkJdETr-21" value="WebSocket" style="text;html=1;align=center;verticalAlign=middle;resizable=0;points=[];autosize=1;strokeColor=none;fillColor=none;" parent="1" vertex="1">
          <mxGeometry x="520" y="415" width="80" height="30" as="geometry" />
        </mxCell>
        <mxCell id="BTfkqiBdbR_koEkJdETr-22" value="" style="endArrow=none;dashed=1;html=1;rounded=0;strokeColor=#FF0000;startArrow=blockThin;startFill=1;" parent="1" edge="1">
          <mxGeometry width="50" height="50" relative="1" as="geometry">
            <mxPoint x="200" y="280" as="sourcePoint" />
            <mxPoint x="200" y="390" as="targetPoint" />
          </mxGeometry>
        </mxCell>
        <mxCell id="BTfkqiBdbR_koEkJdETr-23" value="" style="endArrow=blockThin;dashed=1;html=1;rounded=0;strokeColor=#FF0000;endFill=1;" parent="1" edge="1">
          <mxGeometry width="50" height="50" relative="1" as="geometry">
            <mxPoint x="200" y="390" as="sourcePoint" />
            <mxPoint x="640" y="390" as="targetPoint" />
          </mxGeometry>
        </mxCell>
        <mxCell id="BTfkqiBdbR_koEkJdETr-24" value="Unreliable Channel" style="text;html=1;align=center;verticalAlign=middle;resizable=0;points=[];autosize=1;strokeColor=none;fillColor=none;fontColor=#FF0000;" parent="1" vertex="1">
          <mxGeometry x="390" y="360" width="130" height="30" as="geometry" />
        </mxCell>
        <mxCell id="BTfkqiBdbR_koEkJdETr-26" value="Outlet to /ws_out can be closed by Deno Deploy&lt;br&gt;due to exceeding the CPU time limit" style="text;html=1;align=center;verticalAlign=middle;resizable=0;points=[];autosize=1;strokeColor=none;fillColor=none;" parent="1" vertex="1">
          <mxGeometry x="280" y="260" width="280" height="40" as="geometry" />
        </mxCell>
        <mxCell id="BTfkqiBdbR_koEkJdETr-27" value="" style="shape=flexArrow;endArrow=classic;html=1;rounded=0;width=10;comic=0;" parent="1" edge="1">
          <mxGeometry width="50" height="50" relative="1" as="geometry">
            <mxPoint x="179.66" y="120" as="sourcePoint" />
            <mxPoint x="179.66" y="160" as="targetPoint" />
          </mxGeometry>
        </mxCell>
        <mxCell id="BTfkqiBdbR_koEkJdETr-28" value="WebSocket from&lt;br&gt;Vless Client" style="text;html=1;align=center;verticalAlign=middle;resizable=0;points=[];autosize=1;strokeColor=none;fillColor=none;" parent="1" vertex="1">
          <mxGeometry x="125" y="80" width="110" height="40" as="geometry" />
        </mxCell>
        <mxCell id="BTfkqiBdbR_koEkJdETr-29" value="" style="shape=flexArrow;endArrow=classic;html=1;rounded=0;width=10;comic=0;" parent="1" edge="1">
          <mxGeometry width="50" height="50" relative="1" as="geometry">
            <mxPoint x="179.66" y="680" as="sourcePoint" />
            <mxPoint x="179.66" y="640" as="targetPoint" />
          </mxGeometry>
        </mxCell>
        <mxCell id="BTfkqiBdbR_koEkJdETr-31" value="" style="endArrow=blockThin;dashed=1;html=1;rounded=0;strokeColor=#FF0000;endFill=1;" parent="1" edge="1">
          <mxGeometry width="50" height="50" relative="1" as="geometry">
            <mxPoint x="200" y="410" as="sourcePoint" />
            <mxPoint x="640" y="410" as="targetPoint" />
          </mxGeometry>
        </mxCell>
        <mxCell id="BTfkqiBdbR_koEkJdETr-32" value="" style="endArrow=blockThin;dashed=1;html=1;rounded=0;strokeColor=#FF0000;endFill=1;" parent="1" edge="1">
          <mxGeometry width="50" height="50" relative="1" as="geometry">
            <mxPoint x="200" y="410" as="sourcePoint" />
            <mxPoint x="200" y="520" as="targetPoint" />
          </mxGeometry>
        </mxCell>
        <mxCell id="BTfkqiBdbR_koEkJdETr-34" value="" style="shape=flexArrow;endArrow=classic;html=1;rounded=0;width=10;comic=0;" parent="1" edge="1">
          <mxGeometry width="50" height="50" relative="1" as="geometry">
            <mxPoint x="699.5799999999999" y="500" as="sourcePoint" />
            <mxPoint x="699.5799999999999" y="540" as="targetPoint" />
          </mxGeometry>
        </mxCell>
        <mxCell id="BTfkqiBdbR_koEkJdETr-36" value="WebSocket from&lt;br&gt;Vless Client" style="text;html=1;align=center;verticalAlign=middle;resizable=0;points=[];autosize=1;strokeColor=none;fillColor=none;" parent="1" vertex="1">
          <mxGeometry x="125" y="680" width="110" height="40" as="geometry" />
        </mxCell>
        <mxCell id="BTfkqiBdbR_koEkJdETr-38" value="WebSocket to&lt;br&gt;Vless Server" style="text;html=1;align=center;verticalAlign=middle;resizable=0;points=[];autosize=1;strokeColor=none;fillColor=none;" parent="1" vertex="1">
          <mxGeometry x="650" y="540" width="100" height="40" as="geometry" />
        </mxCell>
        <mxCell id="BTfkqiBdbR_koEkJdETr-39" value="" style="endArrow=none;dashed=1;html=1;rounded=0;" parent="1" edge="1">
          <mxGeometry width="50" height="50" relative="1" as="geometry">
            <mxPoint x="60" y="130" as="sourcePoint" />
            <mxPoint x="580" y="130" as="targetPoint" />
          </mxGeometry>
        </mxCell>
        <mxCell id="BTfkqiBdbR_koEkJdETr-40" value="" style="endArrow=none;dashed=1;html=1;rounded=0;" parent="1" edge="1">
          <mxGeometry width="50" height="50" relative="1" as="geometry">
            <mxPoint x="580" y="670" as="sourcePoint" />
            <mxPoint x="580" y="130" as="targetPoint" />
          </mxGeometry>
        </mxCell>
        <mxCell id="BTfkqiBdbR_koEkJdETr-41" value="" style="endArrow=none;dashed=1;html=1;rounded=0;" parent="1" edge="1">
          <mxGeometry width="50" height="50" relative="1" as="geometry">
            <mxPoint x="60" y="670" as="sourcePoint" />
            <mxPoint x="580" y="670" as="targetPoint" />
          </mxGeometry>
        </mxCell>
        <mxCell id="BTfkqiBdbR_koEkJdETr-42" value="" style="endArrow=none;dashed=1;html=1;rounded=0;" parent="1" edge="1">
          <mxGeometry width="50" height="50" relative="1" as="geometry">
            <mxPoint x="60" y="670" as="sourcePoint" />
            <mxPoint x="60" y="130" as="targetPoint" />
          </mxGeometry>
        </mxCell>
        <mxCell id="BTfkqiBdbR_koEkJdETr-43" value="Serverless Platform&lt;br&gt;Edge Server" style="text;html=1;align=center;verticalAlign=middle;resizable=0;points=[];autosize=1;strokeColor=none;fillColor=none;" parent="1" vertex="1">
          <mxGeometry x="450" y="130" width="130" height="40" as="geometry" />
        </mxCell>
      </root>
    </mxGraphModel>
  </diagram>
</mxfile>
